<svg width="323" height="56" viewBox="0 0 323 56" fill="none" xmlns="http://www.w3.org/2000/svg">
<path d="M97.42 39.1681H92.3699V30.9746H97.42C100.151 30.9746 101.852 32.6236 101.852 35.1486C101.852 37.6737 100.203 39.1681 97.42 39.1681ZM92.3699 22.0081H96.9562C99.4297 22.0081 100.873 23.3994 100.873 25.6668C100.873 27.9342 99.4297 29.4286 97.0593 29.4286H92.3699V22.0081ZM99.6359 30.0985C101.543 29.4286 102.728 27.8312 102.728 25.5638C102.728 22.4203 100.563 20.5137 97.1108 20.5137H90.6178V40.7141H97.5231C101.285 40.7141 103.655 38.6013 103.655 35.1486C103.655 32.5721 102.264 30.7169 99.6359 30.0985Z" fill="#07041F"/>
<path d="M114.942 31.7991L118.498 22.4719L122.054 31.7991H114.942ZM117.57 20.5137L109.789 40.7141H111.541L114.324 33.3966H122.672L125.455 40.7141H127.31L119.529 20.5137H117.57Z" fill="#07041F"/>
<path d="M148.849 38.1375L136.842 20.5137H134.935V40.7141H136.636V23.0903L148.643 40.7141H150.55V20.5137H148.849V38.1375Z" fill="#07041F"/>
<path d="M175.903 20.5137H173.842L166.061 29.274H162.814V20.5137H161.062V40.7141H162.814V30.9231H166.009L173.997 40.7141H176.161L167.555 30.047L175.903 20.5137Z" fill="#07041F"/>
<path d="M185.952 31.7991L189.508 22.4719L193.064 31.7991H185.952ZM188.581 20.5137L180.799 40.7141H182.551L185.334 33.3966H193.682L196.465 40.7141H198.32L190.539 20.5137H188.581Z" fill="#07041F"/>
<path d="M201.359 22.1111H208.11V40.7141H209.862V22.1111H216.561V20.5137H201.359V22.1111Z" fill="#07041F"/>
<path d="M225.992 30.82H233.464V29.171H225.992V22.1111H236.35V20.5137H224.24V40.7141H236.659V39.1166H225.992V30.82Z" fill="#07041F"/>
<path d="M246.398 29.8924V22.1111H251.86C254.282 22.1111 255.88 23.7086 255.88 26.0276C255.88 28.2949 254.231 29.8924 251.706 29.8924H246.398ZM257.683 26.0276C257.683 22.7811 255.313 20.5137 251.86 20.5137H244.646V40.7141H246.398V31.5414H251.242L257.426 40.7141H259.487L253.2 31.3353C255.777 30.82 257.683 28.7587 257.683 26.0276Z" fill="#07041F"/>
<path d="M269.072 20.5137H267.32V40.7141H269.072V20.5137Z" fill="#07041F"/>
<path d="M293.55 38.1375L281.492 20.5137H279.585V40.7141H281.286V23.0903L293.344 40.7141H295.199V20.5137H293.55V38.1375Z" fill="#07041F"/>
<path d="M311.534 30.7156V32.3131H321.067C321.067 36.2811 318.027 39.0122 313.801 39.0122C308.957 39.0122 305.969 35.1989 305.969 30.3549C305.969 25.4594 308.906 21.5946 313.801 21.5946C317.563 21.5946 320.037 23.8104 320.81 26.7477L322.51 26.2839C321.583 22.6252 318.388 19.9971 313.853 19.9971C307.824 19.9971 304.216 24.4803 304.216 30.3549C304.216 36.178 307.978 40.6097 313.853 40.6097C319.212 40.6097 322.922 37.0025 322.922 31.6432V30.7156H311.534Z" fill="#07041F"/>
<path d="M55.2841 24.4079C56.0573 23.4459 58.8409 20.0212 63.2095 16.558C67.2302 13.3257 73.2998 9.74706 75.6194 8.43874C73.8411 10.5551 68.8539 15.7499 66.5729 18.0203C61.9724 22.4455 57.1398 23.9847 55.2841 24.4079ZM59.1502 24.4464C65.6064 23.9077 69.7044 23.7923 71.9854 23.7923C71.9854 23.7923 72.024 23.7923 72.024 23.8307C72.024 23.8692 71.9854 23.8692 71.9854 23.9077C68.6992 25.0236 62.2816 27.1015 56.6759 28.5253C53.8151 29.2564 51.1475 29.8336 49.1758 29.9875C44.1113 30.4493 41.2118 30.2954 39.9747 30.1799C41.6757 29.3334 46.315 27.14 51.998 25.6778C54.2403 25.1391 56.6759 24.6773 59.1502 24.4464ZM64.9879 32.835C66.8822 33.9894 69.3178 35.3363 70.8256 36.1059C69.975 35.9519 68.7766 35.7595 67.0755 35.4902C61.9724 34.6821 54.5496 30.988 52.5393 29.9491C53.815 29.6797 55.2068 29.3719 56.6372 29.0255C57.5651 29.3719 62.359 31.2189 64.9879 32.835ZM54.6656 34.7975C57.2558 36.7215 58.9569 38.0298 59.3821 38.6455C59.4594 38.761 59.4595 38.8379 59.4595 38.8379C59.3821 38.8764 58.9569 38.8379 58.4156 38.4531C57.5651 37.8759 46.5469 32.3348 43.4541 30.7956C44.6912 30.7956 46.199 30.7187 48.0547 30.5647C48.4413 30.7956 52.1913 32.9505 54.6656 34.7975ZM33.9823 33.3353C35.1422 30.911 39.7814 21.8298 46.083 15.673C50.7222 11.1708 53.8151 8.5157 55.5934 7.05346C55.5934 7.05346 55.5934 7.05346 55.6321 7.05346C55.6707 7.05346 55.6707 7.09194 55.7094 7.09194C55.7481 7.09194 55.7867 7.1689 55.7481 7.20738C53.0805 11.7865 46.5083 22.8687 42.3716 26.9091C38.4669 30.7571 35.2581 32.6426 33.9823 33.3353ZM33.2478 33.7201C32.8999 33.9125 32.3973 34.1434 31.7401 34.3742L31.3148 34.5282C31.1601 33.3353 31.6627 31.95 32.9772 28.2175C34.0983 25.1006 35.2581 22.4839 36.5339 20.2521C36.6499 20.0597 36.7659 19.7903 36.8819 19.4825C36.9592 19.2901 37.1138 18.9823 37.2298 18.7899C37.2685 20.1751 36.7659 24.4079 36.5339 25.4084C36.302 26.4474 35.6061 28.987 35.5674 29.1025C34.1756 31.7191 33.3251 33.5277 33.2478 33.7201ZM53.8537 18.0203C56.7532 15.1727 61.2765 10.2088 62.2043 8.78506C62.4363 8.43874 62.6296 8.20786 62.7842 8.01546C62.011 9.55466 58.4543 16.2117 56.8692 18.4051C56.1347 19.444 55.4774 20.406 54.8975 21.2911C53.6604 23.1381 52.6552 24.6388 51.8047 25.216C50.4129 25.5623 49.0985 25.9856 47.8614 26.4089C48.6346 24.9082 51.0315 20.7523 53.8537 18.0203ZM38.1577 34.8745C41.6757 34.9899 48.5573 37.2218 49.4851 37.5681C49.6397 37.6066 49.7171 37.645 49.7944 37.6835C49.3305 37.8374 47.8614 37.9144 46.4309 37.5681C44.9232 37.2218 40.7479 36.5676 36.6499 36.2982C34.2143 36.1443 31.5468 35.9134 29.8457 35.798C32.1267 35.3747 35.7994 34.7975 38.1577 34.8745ZM22.2683 39.569C22.2683 39.646 22.3456 39.723 22.4229 39.7999C23.7374 40.6465 27.1008 42.7629 30.039 44.533C30.6962 44.9178 31.3535 45.341 31.972 45.7643C30.2323 45.2256 22.9642 42.9553 20.3353 42.4166C18.3636 42.0318 16.5079 41.9548 15.1935 41.9933C15.7347 41.7624 16.276 41.5315 16.7785 41.2622C17.6291 40.7619 18.6729 40.2617 19.794 39.723V39.7999C19.794 39.7614 20.7992 39.6845 22.2683 39.569ZM32.8225 43.3016C36.302 45.2256 41.7917 51.1515 42.4876 51.9596C42.6422 52.152 42.7196 52.2674 42.7582 52.3444C42.333 52.3444 40.6319 51.6518 39.3175 50.4589C38.3896 49.6508 36.302 48.0346 33.7504 46.303H33.8277L33.6344 46.2261C32.5519 45.495 31.4308 44.7638 30.271 44.0712C27.7967 42.5705 25.0518 40.8389 23.4668 39.8384C25.941 40.5695 30.3483 41.9163 32.8225 43.3016ZM17.4744 45.2256C14.8842 44.7254 13.879 43.1862 13.5697 42.532C14.4589 42.455 17.2038 42.2626 20.1806 42.8398C22.3843 43.2631 27.9127 44.9562 30.6189 45.8028C27.3715 45.8028 20.0647 45.6874 17.4744 45.2256ZM12.9125 42.1087C11.4434 42.532 9.8197 42.7629 8.27329 42.8783C7.96401 42.8014 7.73205 42.7629 7.61607 42.8398L7.53874 42.9168C6.76554 42.9553 5.99234 42.9938 5.25779 43.0322C5.41243 42.8014 5.68305 42.455 5.99233 42.0318C6.57224 41.8778 9.85836 40.8389 11.5981 40.2232C13.5697 39.5306 15.3481 36.4522 16.3919 33.8355C17.0105 32.2579 16.9718 31.8731 16.7012 31.7191C16.4306 31.5652 16.16 31.7191 15.2321 32.835C14.4589 33.8355 13.3764 34.5666 12.1007 35.4517C11.6367 35.798 11.1341 36.1443 10.5929 36.4907C9.85836 37.0294 8.96917 37.8759 8.15731 38.684C8.89185 37.4911 9.6264 36.1828 10.0903 35.0669C10.5156 34.0664 10.9408 32.912 11.3274 31.7961C11.9074 31.4882 16.1213 29.064 17.4358 28.2175C18.5569 27.5248 19.7167 26.2935 20.3353 25.6393C20.258 26.1395 20.2193 26.6783 20.142 27.1785C19.8714 29.0255 18.7889 35.0284 18.7502 35.1054L18.6729 35.6056C17.0105 38.4916 16.4693 40.3771 16.3533 40.7619C15.3868 41.3006 14.3043 41.6854 13.1058 42.0318L12.9125 42.1087ZM12.062 45.2641C13.2218 46.0722 15.9667 48.4194 18.9049 51.9211C19.6781 52.8446 20.8379 54.5378 21.2631 55.3074C19.9873 54.6147 15.6961 51.7287 13.0672 49.5738C12.2166 48.8812 9.39444 46.4185 8.15731 43.417C8.19597 43.417 8.23463 43.417 8.31195 43.417C9.16247 43.7249 11.0955 44.5714 12.062 45.2641ZM6.53358 41.3391C7.46143 40.2232 9.47176 38.0298 10.9408 36.9524C11.4434 36.5676 11.946 36.2213 12.4099 35.9134C13.6857 35.0284 14.8069 34.2588 15.6574 33.2198C16.0053 32.7581 16.2373 32.5272 16.3919 32.4118C16.3533 32.6427 16.2373 33.0275 15.9667 33.7586C15.0388 36.1828 13.2605 39.2227 11.4821 39.8769C10.129 40.3771 7.7707 41.1082 6.57224 41.4546C6.53358 41.3776 6.53358 41.3776 6.53358 41.3391ZM5.10315 31.5267C4.83253 30.6802 4.56191 29.3334 4.29129 28.0635C4.02066 26.6398 3.75004 25.3315 3.47942 24.6773C3.13148 23.9077 3.2088 23.7153 3.2088 23.7153C3.2088 23.7153 3.28612 23.7153 3.44076 23.7538C3.94334 23.9462 5.60574 25.3699 6.64956 29.064C7.22947 31.1419 6.9975 34.5667 6.72688 37.1063C6.26296 35.4902 5.52842 32.7581 5.10315 31.5267ZM16.1213 25.5239C17.9384 23.7153 20.0647 22.4839 20.7605 22.1376C20.6832 22.9842 20.6059 23.9847 20.4899 25.0236L20.4126 24.9851C20.4126 25.0236 18.7502 26.9861 17.2425 27.9096C16.16 28.6023 13.0672 30.3723 11.7141 31.1419C12.1393 30.4493 14.4976 27.14 16.1213 25.5239ZM21.4178 19.5979C21.5338 17.9048 21.6884 17.2507 21.7657 17.0198C22.1523 17.8279 22.9642 21.8683 22.3456 25.3315C21.8817 27.8711 20.4899 31.2958 19.6007 33.3353C19.9487 31.3728 20.4513 28.5253 20.6446 27.3324C21.1472 23.8692 21.4178 19.6364 21.4178 19.5979ZM20.2193 34.1434C20.8379 33.1814 23.1188 30.3723 25.3225 27.6787C27.1395 25.4084 28.8792 23.292 29.4591 22.4839C30.3483 21.2141 31.4694 20.0597 31.972 19.6749V19.7134L31.856 20.0982C31.2761 21.7143 29.923 25.5623 26.7915 30.2184C23.9307 34.4512 18.8275 38.9149 17.0878 40.3386C17.4358 39.2612 18.325 37.0678 20.2193 34.1434ZM37.8097 39.3382C42.4489 40.2232 44.7686 42.0318 45.5418 42.609L45.6191 42.6859C45.1165 42.609 44.15 42.3781 43.1835 42.0318C42.8742 41.9163 42.5649 41.8009 42.2556 41.6854C40.7865 41.1467 39.0082 40.4926 36.6112 39.9923C34.9875 39.646 33.2091 39.1458 32.0107 38.761C33.6344 38.7994 36.1087 39.0303 37.8097 39.3382ZM11.5207 22.4839C11.4821 21.0602 11.6754 17.4815 12.7192 13.0563C12.9898 11.9019 13.6084 10.0164 13.995 9.20834C14.0337 10.2858 13.9177 13.0563 13.8017 15.3267C13.763 16.2887 13.7244 17.2122 13.6857 18.0972C13.6084 20.3675 12.8352 24.1001 12.3326 26.4859C12.0233 25.4854 11.5594 23.5999 11.5207 22.4839ZM18.4796 11.9019C19.4848 9.51618 20.7219 6.86106 21.7657 4.70618C22.3843 3.43634 22.8869 2.3589 23.1961 1.5893C23.1575 1.82018 23.1188 2.05106 23.1188 2.24346C22.8482 4.0905 20.258 13.3257 18.4409 17.8279C15.8894 24.254 13.8017 25.9087 12.9125 26.3704C13.6857 24.2925 16.7785 15.9808 18.4796 11.9019ZM24.2013 20.8293L23.1188 22.4455C23.1188 21.9837 23.1188 21.5604 23.0802 21.1371L24.2013 20.8293ZM76.2767 8.36178C76.3926 8.20786 76.3926 7.97698 76.2767 7.86154C76.1607 7.70762 75.9287 7.66914 75.7741 7.78458C73.8411 8.9005 67.2302 12.7485 62.9002 16.1732C57.9517 20.1751 54.9749 24.0231 54.7042 24.3695L54.3563 24.6388C53.8151 24.7543 53.3125 24.8697 52.7712 24.9851C53.5058 24.2155 54.3176 22.9842 55.2841 21.5604C55.864 20.6754 56.5213 19.7134 57.2558 18.6744C58.9569 16.2887 63.0548 8.66962 63.3641 7.90002C63.4414 7.7461 63.5961 7.32282 63.2868 7.1689C63.1708 7.09194 62.8229 6.93802 61.7791 8.47722C60.8512 9.8625 56.3666 14.7879 53.4671 17.6355C50.2583 20.7908 47.5521 25.7547 47.0882 26.6398C44.15 27.6787 41.7531 28.7562 40.3613 29.4103C41.0958 28.7562 41.9077 28.0635 42.7196 27.2555C46.8949 23.1381 53.5058 12.0174 56.1347 7.43826C56.2893 7.20738 56.212 6.89954 55.98 6.70714C55.7481 6.51474 55.4774 6.51474 55.2841 6.66866C53.5058 8.09242 50.4129 10.786 45.7351 15.2882C41.9464 18.9823 38.7376 23.7153 36.5339 27.4479C36.7272 26.7552 36.9205 25.9856 36.9978 25.4854C37.2298 24.4079 37.771 19.9443 37.6937 18.6359C37.6937 18.4435 37.6551 18.0587 37.3845 17.9818C37.0365 17.9048 36.8432 18.3281 36.4566 19.2516C36.3406 19.521 36.2246 19.7903 36.1087 19.9827C34.8329 22.2531 33.6731 24.8697 32.5133 28.0251C31.1215 31.9115 30.6189 33.2968 30.8509 34.6436C27.5261 35.875 22.3456 37.799 18.5183 39.646C20.7992 37.6835 24.7812 33.9894 27.1781 30.4108C30.3483 25.6778 31.7014 21.8298 32.2813 20.1751L32.3973 19.7903C32.4746 19.6364 32.6292 19.1747 32.32 19.0207C31.5854 18.6359 29.0725 22.0607 29.0725 22.0991C28.4926 22.9072 26.7915 25.0236 24.9745 27.2555C23.0028 29.6797 20.9538 32.1809 20.1033 33.4123C21.0312 31.3343 22.3843 27.8711 22.8869 25.3315C23.0028 24.6773 23.0802 23.9847 23.1188 23.292L24.7812 20.8293C24.8585 20.7139 24.8585 20.5215 24.7812 20.406C24.7039 20.2906 24.5106 20.2136 24.3559 20.2521L23.0415 20.5984C22.8869 18.7514 22.5389 17.2122 22.2296 16.7119C22.075 16.4426 21.9204 16.3271 21.7271 16.4041C21.4951 16.4426 21.1858 16.5195 20.9538 19.5595C20.9538 19.5595 20.9152 20.4445 20.7992 21.6759L20.7605 21.5989C20.6446 21.6374 18.0157 22.9842 15.7734 25.216C14.5749 26.4089 12.9898 28.4868 12.0233 29.8336C12.4099 28.6407 12.6806 27.6018 12.8739 26.9476C13.763 26.6013 16.0827 25.0621 18.8662 18.0587C20.6446 13.5566 23.2735 4.20594 23.5441 2.3589C23.8534 0.280982 23.8534 0.0885821 23.5441 0.0116221C23.2735 -0.0653378 23.1575 0.242502 22.9255 0.858182C22.6936 1.47386 22.075 2.82066 21.2631 4.55226C20.258 6.70714 18.9822 9.36226 17.977 11.748C16.7399 14.7495 14.7296 20.0982 13.4151 23.5229C13.8017 21.5604 14.111 19.5595 14.1496 18.1357C14.1883 17.2891 14.227 16.3271 14.2656 15.4036C14.4976 10.4397 14.5362 8.86202 14.3043 8.55418L14.1496 8.40026L13.995 8.43874C13.3378 8.55418 12.2166 12.9409 12.2166 12.9794C11.1341 17.4431 10.9408 21.0987 10.9795 22.5224C11.0182 23.4075 11.6754 26.8322 12.178 27.4479C11.6367 29.2949 10.6316 32.5272 9.58774 35.0284C8.89185 36.6446 7.69339 38.607 6.64956 40.1847C6.72688 39.723 6.8042 39.2227 6.88152 38.7225C7.22946 36.2213 7.73205 31.6037 6.9975 28.9871C5.91502 25.1006 4.09798 23.5999 3.51808 23.369C3.17014 23.2151 2.93818 23.2535 2.78354 23.4075C2.55158 23.6383 2.59024 24.1001 2.93818 24.9082C3.2088 25.5239 3.44076 26.8322 3.71138 28.2175C3.982 29.5258 4.21397 30.8726 4.52325 31.7576C5.10315 33.4507 6.30162 38.0298 6.4176 38.4146C6.4176 38.4916 6.37894 38.5686 6.37894 38.6455C6.2243 39.6075 6.031 40.6465 5.95368 41.1852C5.91502 41.2622 5.83769 41.3391 5.79903 41.4161C5.64439 41.6085 5.52842 41.7624 5.48976 41.8394C4.90985 42.6474 4.52325 43.1477 4.52325 43.1477C2.6289 43.1862 1.08249 43.1092 0.193301 43.0322H0.0386596L0 43.5325H0.154642C1.08249 43.6094 2.35828 43.6479 3.82736 43.6479C4.94851 43.6479 6.2243 43.6094 7.50009 43.5325C8.77587 46.6878 11.7141 49.266 12.6419 49.9971C15.2321 52.1135 20.8765 56 21.4951 56L21.6884 55.9615L21.7657 55.8076C22.0363 55.1919 19.2141 51.6902 19.2141 51.6518C16.276 48.1116 13.4924 45.7643 12.294 44.9178C11.7914 44.5714 10.4383 43.8403 9.27845 43.3401C10.5542 43.1862 11.83 42.9553 13.0285 42.6474C13.2991 43.3016 14.3816 45.1486 17.3198 45.7258C20.5286 46.3415 30.6576 46.38 32.0493 46.38C32.1267 46.38 32.1653 46.38 32.204 46.38H32.7839C35.5674 48.227 37.9257 50.0356 38.8922 50.8822C39.936 51.8057 41.7917 52.8446 42.6809 52.8446C42.8355 52.8446 42.9902 52.8062 43.0675 52.7292C43.4154 52.4214 42.9515 51.8442 42.7969 51.6902C42.101 50.8437 36.5339 44.8793 33.0158 42.9168C30.5802 41.57 26.289 40.2232 23.7374 39.4921C26.1343 39.2997 28.9952 39.0688 30.7349 38.9149C30.7735 38.9534 30.8122 38.9534 30.8509 38.9534C31.0828 39.0303 31.3921 39.1073 31.7787 39.2227C32.9772 39.569 34.8329 40.1462 36.5339 40.4926C38.8922 40.9928 40.6706 41.647 42.101 42.1857C42.4489 42.3011 42.7582 42.4166 43.0288 42.532C43.6861 42.7629 45.0392 43.2246 45.8124 43.2246C46.083 43.2246 46.2763 43.1862 46.315 43.0322C46.4696 42.7629 46.1217 42.4935 45.967 42.3781L45.8124 42.2626C45.0392 41.647 42.6036 39.7614 37.8484 38.8764C35.6834 38.4531 32.32 38.2607 30.9282 38.3377C30.8509 38.3377 30.7735 38.3762 30.7349 38.4146C28.1833 38.6455 23.0415 39.0303 20.7992 39.1842C23.3121 38.0683 26.0957 36.9909 28.4539 36.1059C28.4926 36.1443 28.5699 36.1828 28.6472 36.1828C30.0003 36.2982 33.5184 36.5676 36.6112 36.7985C40.6706 37.0678 44.8072 37.722 46.315 38.0683C46.9335 38.2222 47.8227 38.2992 48.6346 38.2992C49.5238 38.2992 50.297 38.1838 50.3743 37.8374C50.4903 37.4526 49.9104 37.2218 49.6784 37.1448C48.7506 36.7985 41.7917 34.5282 38.1963 34.4127C36.2633 34.3742 33.5184 34.7206 31.3148 35.0669L31.972 34.836C33.1705 34.3742 33.9823 33.9125 34.021 33.9125C34.7942 33.5277 36.6112 32.5272 39.0855 30.6032H39.1628C39.2401 30.6032 40.2453 30.7956 42.5649 30.8341L42.5263 30.8726C42.6809 30.9495 57.2945 38.2607 58.2223 38.8764C58.6862 39.1842 59.1115 39.3382 59.4595 39.3382C59.6528 39.3382 59.8074 39.2997 59.9234 39.1842C60.0007 39.1073 60.194 38.8379 59.8847 38.3762C59.4208 37.6835 57.7584 36.3752 55.0522 34.3742C53.0418 32.912 50.2583 31.2189 48.9825 30.4878C49.0598 30.4878 49.1758 30.4878 49.2531 30.4493C50.0263 30.3723 50.8769 30.2569 51.8047 30.103C51.882 30.1415 61.0445 35.0284 67.0368 35.9519C69.7817 36.3752 71.3281 36.683 71.9467 36.7985C71.9854 36.7985 71.9854 36.7985 72.024 36.7985C72.14 36.7985 72.256 36.7215 72.2946 36.6061C72.3333 36.4522 72.2946 36.2982 72.14 36.2598C71.1348 35.7595 67.7327 33.9125 65.2585 32.4118C62.9775 31.0265 59.1115 29.4488 57.4878 28.7947C62.9775 27.3709 69.0472 25.3699 72.1787 24.331C72.4493 24.254 72.6039 23.9847 72.5266 23.7153C72.4879 23.4459 72.256 23.292 71.9854 23.2535C69.7044 23.2535 65.6064 23.369 59.1115 23.9077C58.7249 23.9462 58.3383 23.9847 57.9517 24.0231C60.3486 23.0996 63.6734 21.4065 66.8822 18.2511C69.3565 15.9039 74.7689 10.2473 76.2767 8.36178Z" fill="#47583F"/>
</svg>
