<svg xmlns="http://www.w3.org/2000/svg" width="36" height="36" fill="none"><path stroke="#A3C18F" stroke-linecap="round" stroke-linejoin="round" stroke-width="1.5" d="M22.882 6.683V18.78c0 1.33-1.088 2.42-2.419 2.42H7.156V11.52a4.837 4.837 0 0 1 4.84-4.838z"/><path stroke="#A3C18F" stroke-linecap="round" stroke-linejoin="round" stroke-width="1.5" d="M31.35 21.2v3.628a3.624 3.624 0 0 1-3.629 3.63h-1.21c0-1.331-1.088-2.42-2.419-2.42a2.427 2.427 0 0 0-2.42 2.42h-4.838c0-1.331-1.089-2.42-2.42-2.42a2.427 2.427 0 0 0-2.419 2.42h-1.21a3.624 3.624 0 0 1-3.629-3.63V21.2h13.307c1.33 0 2.42-1.089 2.42-2.42v-8.467h2.225c.871 0 1.67.472 2.105 1.222l2.069 3.617h-1.56c-.666 0-1.21.544-1.21 1.21v3.628c0 .666.544 1.21 1.21 1.21z"/><path stroke="#A3C18F" stroke-linecap="round" stroke-linejoin="round" stroke-width="1.5" d="M14.415 30.877a2.42 2.42 0 1 0 0-4.839 2.42 2.42 0 0 0 0 4.839M24.092 30.877a2.42 2.42 0 1 0 0-4.839 2.42 2.42 0 0 0 0 4.839M31.35 18.78v2.419h-3.629c-.665 0-1.21-.545-1.21-1.21V16.36c0-.665.545-1.21 1.21-1.21h1.56z"/></svg>