<svg xmlns="http://www.w3.org/2000/svg" width="36" height="36" fill="none"><path stroke="#A3C18F" stroke-linecap="round" stroke-linejoin="round" stroke-width="1.5" d="M11.197 14.988a8.2 8.2 0 0 1-.734-3.252 7.762 7.762 0 0 1 15.419 0 8.6 8.6 0 0 1-.734 3.252"/><path stroke="#A3C18F" stroke-linecap="round" stroke-linejoin="round" stroke-width="1.5" d="M10.043 23.903a7.66 7.66 0 0 1-6.293-7.552c0-4.195 2.832-6.818 7.028-6.818M25.463 9.533c4.3 0 7.132 2.623 7.132 6.818a7.66 7.66 0 0 1-6.293 7.552M10.043 23.903v7.972h16.153v-7.972M10.043 27.889h16.153M18.12 27.889v-4.196"/></svg>