<svg xmlns="http://www.w3.org/2000/svg" width="36" height="36" fill="none"><path stroke="#A3C18F" stroke-width="1.5" d="M8.25 16.875v3.682c0 4.628 0 6.942 1.396 8.38s3.641 1.438 8.133 1.438h1.192c4.492 0 6.738 0 8.133-1.438C28.5 27.5 28.5 25.185 28.5 20.557v-3.682"/><path stroke="#A3C18F" stroke-width="1.5" d="M15.12 5.625h6.51l.85 7.82c.242 2.238-1.665 4.18-4.105 4.18s-4.347-1.942-4.104-4.18zM7.545 9.647c.216-1.069.323-1.603.542-2.036a3.62 3.62 0 0 1 2.281-1.858c.47-.128 1.02-.128 2.116-.128H15l-.875 8.694a3.687 3.687 0 0 1-3.678 3.306c-2.332 0-4.081-2.12-3.624-4.39zM29.205 9.647c-.215-1.069-.323-1.603-.542-2.036a3.62 3.62 0 0 0-2.281-1.858c-.47-.128-1.02-.128-2.116-.128H21.75l.875 8.694a3.687 3.687 0 0 0 3.678 3.306c2.332 0 4.081-2.12 3.624-4.39z"/><path stroke="#A3C18F" stroke-linecap="round" stroke-width="1.5" d="M15 29.625v-3.682c0-1.147 0-1.72.271-2.148.178-.28.434-.512.741-.673.47-.247 1.101-.247 2.363-.247s1.893 0 2.363.247c.307.161.563.394.74.674.272.427.272 1 .272 2.147v3.682"/></svg>