<svg xmlns="http://www.w3.org/2000/svg" width="36" height="36" fill="none"><path stroke="#A3C18F" stroke-width="1.5" d="M4.594 19.238c-.07-.612-.105-.918-.09-1.17.077-1.322 1.032-2.417 2.31-2.649.243-.044.545-.044 1.148-.044h14.826c.604 0 .905 0 1.149.044 1.277.232 2.232 1.327 2.31 2.65.014.251-.02.557-.09 1.169l-.563 4.908a7.93 7.93 0 0 1-3.193 5.512 7.63 7.63 0 0 1-4.49 1.467H12.84a7.63 7.63 0 0 1-4.491-1.467 7.93 7.93 0 0 1-3.193-5.512z"/><path stroke="#A3C18F" stroke-width="1.5" d="M25.5 25.875h2.7c2.237 0 4.05-2.015 4.05-4.5s-1.813-4.5-4.05-4.5h-2.025"/><path stroke="#A3C18F" stroke-linecap="round" stroke-linejoin="round" stroke-width="1.5" d="M15.75 4.875c-1 .725-1 1.9 0 2.625s1 1.9 0 2.625M9.05 12.375l.15-.174c.66-.76.735-1.965.175-2.826-.56-.86-.486-2.065.174-2.826l.151-.174M21.8 12.375l.15-.174c.66-.76.735-1.965.175-2.826-.56-.86-.486-2.065.174-2.826l.151-.174"/></svg>