<svg xmlns="http://www.w3.org/2000/svg" width="36" height="36" fill="none"><path stroke="#A3C18F" stroke-linecap="round" stroke-linejoin="round" stroke-width="1.5" d="M15.442 5.625h11.154a4.904 4.904 0 0 1 4.904 4.904m0 0H15.827a10.577 10.577 0 1 0 0 21.154h14.23v-6.058l-8.365 2.692a9.1 9.1 0 0 1-3.173.481 4.71 4.71 0 0 1-4.711-4.615 4.71 4.71 0 0 1 4.711-4.712h4.039A8.943 8.943 0 0 0 31.5 10.53M17.46 10.53v9.038M7.654 14.375l7.02 7.02M6.21 25.53H14M19.096 28.99v2.693"/><path fill="#A3C18F" d="M22.75 14.952a1.154 1.154 0 1 0 0-2.307 1.154 1.154 0 0 0 0 2.307"/></svg>